<svg xmlns="http://www.w3.org/2000/svg" xmlns:xlink="http://www.w3.org/1999/xlink" preserveAspectRatio="xMidYMid" width="87" height="92" viewBox="0 0 87 92">
  <defs>
    <style>
      .cls-1 {
        fill: #fff;
        fill-rule: evenodd;
      }
    </style>
  </defs>
  <path d="M86.474,19.828 L80.051,23.724 C79.876,23.829 79.684,23.880 79.494,23.880 C79.128,23.880 78.771,23.693 78.568,23.355 C78.260,22.843 78.425,22.175 78.935,21.865 L85.358,17.969 C85.868,17.660 86.532,17.825 86.841,18.338 C87.149,18.851 86.984,19.518 86.474,19.828 ZM86.715,37.439 C86.683,53.708 86.645,69.976 86.738,86.244 C86.755,89.150 85.943,91.153 83.051,91.998 C56.856,91.998 30.661,91.998 4.466,91.998 C2.828,91.395 1.393,90.570 0.988,88.674 C0.898,88.256 0.851,87.820 0.850,87.392 C0.844,70.618 0.855,53.843 0.822,37.069 C0.820,36.018 1.401,35.490 2.067,34.953 C5.572,32.126 9.074,29.295 12.617,26.514 C13.321,25.961 13.598,25.377 13.560,24.500 C13.501,23.129 13.526,21.753 13.552,20.380 C13.597,18.025 15.156,16.344 17.512,16.253 C19.811,16.166 22.117,16.279 24.415,16.177 C25.143,16.144 25.981,15.874 26.554,15.432 C31.883,11.312 37.164,7.129 42.461,2.967 C43.763,1.943 43.813,1.945 45.132,2.983 C50.398,7.125 55.648,11.288 60.949,15.386 C61.549,15.850 62.422,16.135 63.185,16.174 C65.302,16.281 67.427,16.194 69.549,16.222 C72.384,16.259 73.926,17.840 73.940,20.682 C73.947,22.020 73.979,23.359 73.926,24.695 C73.897,25.427 74.167,25.885 74.729,26.331 C78.372,29.217 81.977,32.149 85.619,35.035 C86.425,35.673 86.717,36.394 86.715,37.439 ZM57.979,15.582 C53.418,12.010 48.850,8.444 44.314,4.841 C43.715,4.364 43.384,4.627 42.935,4.980 C38.494,8.473 34.046,11.958 29.595,15.437 C29.382,15.605 29.119,15.707 28.879,15.840 C28.955,15.929 29.031,16.017 29.107,16.105 C38.838,16.105 48.568,16.105 58.298,16.105 C58.354,16.013 58.409,15.919 58.465,15.827 C58.302,15.746 58.119,15.691 57.979,15.582 ZM69.504,18.127 C60.941,18.124 52.378,18.126 43.815,18.123 C35.288,18.123 26.761,18.121 18.234,18.125 C16.190,18.125 15.414,18.896 15.414,20.930 C15.411,32.358 15.418,43.786 15.399,55.214 C15.398,55.860 15.567,56.267 16.114,56.631 C21.446,60.171 26.768,63.724 32.068,67.309 C32.649,67.701 33.041,67.669 33.585,67.301 C36.588,65.268 39.630,63.292 42.618,61.235 C43.432,60.675 44.057,60.689 44.855,61.235 C47.852,63.285 50.894,65.269 53.895,67.315 C54.453,67.696 54.839,67.716 55.415,67.327 C60.746,63.725 66.108,60.167 71.431,56.552 C71.791,56.309 72.109,55.706 72.110,55.269 C72.147,43.769 72.142,32.268 72.136,20.768 C72.136,18.930 71.326,18.128 69.504,18.127 ZM83.885,36.151 C80.827,33.745 77.807,31.288 74.767,28.858 C74.563,28.695 74.310,28.593 74.026,28.432 C74.026,37.243 74.026,45.928 74.026,54.833 C75.698,53.714 77.211,52.699 78.726,51.688 C79.774,50.988 80.789,50.224 81.895,49.634 C82.240,49.450 83.007,49.570 83.276,49.848 C83.713,50.302 83.418,50.849 82.892,51.193 C82.590,51.390 82.294,51.594 81.995,51.795 C73.775,57.310 65.555,62.824 57.336,68.342 C57.060,68.527 56.804,68.742 56.449,69.011 C57.099,69.462 57.594,69.816 58.100,70.153 C66.241,75.596 74.385,81.035 82.524,86.479 C83.086,86.854 83.829,87.218 83.227,88.076 C82.681,88.854 82.045,88.493 81.448,88.086 C81.329,88.004 81.206,87.928 81.086,87.848 C68.879,79.678 56.669,71.512 44.477,63.319 C43.843,62.893 43.434,62.983 42.866,63.371 C40.129,65.237 37.368,67.067 34.615,68.909 C25.039,75.315 15.461,81.719 5.886,88.126 C5.315,88.508 4.683,88.861 4.193,88.138 C3.720,87.440 4.159,86.927 4.797,86.567 C4.953,86.479 5.095,86.365 5.245,86.264 C13.476,80.761 21.708,75.259 29.938,69.753 C30.279,69.525 30.601,69.267 31.032,68.949 C30.500,68.584 30.121,68.318 29.736,68.060 C21.519,62.543 13.300,57.028 5.085,51.507 C4.496,51.112 3.679,50.702 4.222,49.830 C4.817,48.873 5.519,49.514 6.143,49.931 C8.239,51.330 10.331,52.735 12.431,54.130 C12.734,54.331 13.064,54.492 13.492,54.733 C13.492,45.854 13.492,37.187 13.492,28.267 C13.046,28.571 12.775,28.730 12.533,28.924 C9.553,31.315 6.591,33.727 3.591,36.092 C2.900,36.637 2.662,37.231 2.663,38.111 C2.689,54.419 2.682,70.728 2.682,87.037 C2.682,89.295 3.460,90.054 5.758,90.054 C25.005,90.055 44.252,90.058 63.499,90.060 C69.650,90.061 75.802,90.065 81.954,90.057 C83.775,90.055 84.790,89.147 84.790,87.542 C84.790,71.052 84.781,54.563 84.799,38.074 C84.800,37.234 84.547,36.673 83.885,36.151 ZM63.812,37.687 C57.088,37.691 50.365,37.689 43.641,37.690 C37.025,37.690 30.409,37.691 23.793,37.690 C22.296,37.689 22.106,37.529 22.101,36.013 C22.085,31.750 22.089,27.486 22.103,23.223 C22.107,21.904 22.357,21.673 23.711,21.672 C37.086,21.668 50.461,21.668 63.837,21.672 C65.135,21.673 65.349,21.874 65.353,23.181 C65.367,27.518 65.366,31.855 65.353,36.192 C65.350,37.467 65.103,37.687 63.812,37.687 ZM63.380,23.646 C50.257,23.646 37.217,23.646 24.116,23.646 C24.116,27.666 24.116,31.622 24.116,35.656 C37.217,35.656 50.258,35.656 63.380,35.656 C63.380,31.576 63.380,27.621 63.380,23.646 ZM23.193,54.360 C23.753,54.189 24.402,54.312 25.013,54.312 C28.499,54.311 31.985,54.312 35.471,54.312 C39.316,54.312 43.161,54.312 47.007,54.314 C47.294,54.314 47.657,54.225 47.851,54.365 C48.190,54.609 48.642,55.000 48.642,55.328 C48.642,55.656 48.187,56.044 47.847,56.287 C47.653,56.425 47.290,56.333 47.003,56.334 C39.276,56.334 31.550,56.334 23.823,56.334 C23.607,56.334 23.391,56.341 23.176,56.327 C22.560,56.287 22.029,55.978 22.184,55.347 C22.282,54.946 22.781,54.484 23.193,54.360 ZM64.511,44.117 C64.323,44.260 63.956,44.173 63.669,44.173 C50.400,44.174 37.131,44.174 23.862,44.172 C23.575,44.172 23.218,44.260 23.016,44.124 C22.669,43.889 22.152,43.470 22.191,43.200 C22.247,42.820 22.704,42.446 23.070,42.185 C23.263,42.047 23.629,42.150 23.916,42.150 C30.569,42.149 37.221,42.149 43.873,42.150 C50.454,42.151 57.034,42.150 63.615,42.152 C63.902,42.152 64.263,42.054 64.461,42.190 C64.805,42.426 65.265,42.804 65.273,43.133 C65.281,43.462 64.843,43.866 64.511,44.117 ZM24.013,50.274 C23.690,50.274 23.306,50.373 23.057,50.233 C22.699,50.032 22.175,49.628 22.202,49.357 C22.238,48.975 22.677,48.593 23.018,48.299 C23.168,48.170 23.504,48.250 23.755,48.250 C37.096,48.249 50.438,48.249 63.780,48.249 C64.031,48.249 64.350,48.173 64.519,48.296 C64.834,48.527 65.287,48.889 65.272,49.175 C65.252,49.540 64.884,49.961 64.555,50.208 C64.342,50.368 63.930,50.271 63.607,50.271 C56.954,50.273 50.301,50.273 43.648,50.273 C37.103,50.274 30.558,50.274 24.013,50.274 ZM65.243,7.607 C65.040,7.943 64.684,8.128 64.320,8.128 C64.129,8.128 63.935,8.077 63.760,7.971 C63.250,7.660 63.088,6.992 63.398,6.480 L66.997,0.524 C67.307,0.012 67.971,-0.151 68.481,0.161 C68.990,0.471 69.152,1.139 68.843,1.651 L65.243,7.607 ZM23.240,7.971 C23.064,8.077 22.871,8.128 22.680,8.128 C22.315,8.128 21.959,7.943 21.756,7.607 L18.157,1.651 C17.847,1.139 18.010,0.471 18.519,0.161 C19.029,-0.151 19.693,0.012 20.002,0.524 L23.602,6.480 C23.911,6.992 23.749,7.660 23.240,7.971 ZM7.506,23.880 C7.316,23.880 7.123,23.829 6.949,23.724 L0.526,19.828 C0.015,19.518 -0.149,18.851 0.159,18.338 C0.467,17.825 1.131,17.659 1.641,17.969 L8.065,21.865 C8.575,22.175 8.739,22.843 8.431,23.355 C8.228,23.693 7.871,23.880 7.506,23.880 Z" class="cls-1"/>
</svg>
