<svg xmlns="http://www.w3.org/2000/svg" xmlns:xlink="http://www.w3.org/1999/xlink" preserveAspectRatio="xMidYMid" width="60" height="76" viewBox="0 0 60 76">
  <defs>
    <style>
      .cls-1 {
        fill: #002147;
        fill-rule: evenodd;
      }
    </style>
  </defs>
  <path d="M30.000,75.998 C13.431,75.998 0.000,62.567 0.000,45.998 C0.000,29.430 0.000,-0.002 0.000,-0.002 L60.000,-0.002 C60.000,-0.002 60.000,29.430 60.000,45.998 C60.000,62.567 46.568,75.998 30.000,75.998 ZM58.000,45.999 L56.000,45.999 L56.000,47.999 C56.000,48.551 55.552,48.999 55.000,48.999 L51.000,48.999 C50.448,48.999 50.000,48.551 50.000,47.999 L50.000,45.999 L48.000,45.999 L48.000,47.999 C48.000,48.551 47.552,48.999 47.000,48.999 L43.000,48.999 C42.448,48.999 42.000,48.551 42.000,47.999 L42.000,45.999 L41.000,45.999 L41.000,60.999 L52.000,60.999 C52.542,60.999 52.977,61.432 52.994,61.969 C56.146,57.439 58.000,51.937 58.000,45.999 ZM52.289,62.940 C52.196,62.969 52.102,62.999 52.000,62.999 L41.000,62.999 L41.000,64.999 L50.561,64.999 C51.169,64.341 51.745,63.655 52.289,62.940 ZM48.510,66.999 L41.000,66.999 L41.000,68.999 C41.000,69.551 40.552,69.999 40.000,69.999 L20.000,69.999 C19.448,69.999 19.000,69.551 19.000,68.999 L19.000,66.999 L11.490,66.999 C16.425,71.353 22.902,73.999 30.000,73.999 C37.098,73.999 43.575,71.353 48.510,66.999 ZM35.168,9.445 L36.131,7.999 L31.000,7.999 L31.000,11.999 L36.131,11.999 L35.168,10.554 C34.944,10.218 34.944,9.780 35.168,9.445 ZM30.078,14.995 C30.052,14.997 30.026,14.999 30.000,14.999 C29.974,14.999 29.948,14.997 29.922,14.995 L19.802,31.019 C19.866,31.006 19.932,30.999 20.000,30.999 L33.000,30.999 C33.552,30.999 34.000,31.447 34.000,31.999 C34.000,32.551 33.552,32.999 33.000,32.999 L21.000,32.999 L21.000,63.999 L23.000,63.999 L23.000,57.999 C23.000,54.139 26.140,50.999 30.000,50.999 C33.860,50.999 37.000,54.139 37.000,57.999 L37.000,63.999 L39.000,63.999 L39.000,32.999 L37.000,32.999 C36.448,32.999 36.000,32.551 36.000,31.999 C36.000,31.447 36.448,30.999 37.000,30.999 L40.000,30.999 C40.068,30.999 40.134,31.006 40.198,31.019 L30.078,14.995 ZM21.000,65.999 L21.000,67.999 L23.000,67.999 L23.000,65.999 L21.000,65.999 ZM30.000,57.999 C30.552,57.999 31.000,58.447 31.000,58.999 L31.000,67.999 L35.000,67.999 L35.000,57.999 C35.000,55.584 33.279,53.564 31.000,53.100 L31.000,54.999 C31.000,55.551 30.552,55.999 30.000,55.999 C29.448,55.999 29.000,55.551 29.000,54.999 L29.000,53.100 C26.720,53.564 25.000,55.584 25.000,57.999 L25.000,67.999 L29.000,67.999 L29.000,58.999 C29.000,58.447 29.448,57.999 30.000,57.999 ZM37.000,65.999 L37.000,67.999 L39.000,67.999 L39.000,65.999 L37.000,65.999 ZM17.000,60.999 L19.000,60.999 L19.000,45.999 L18.000,45.999 L18.000,47.999 C18.000,48.551 17.552,48.999 17.000,48.999 L13.000,48.999 C12.448,48.999 12.000,48.551 12.000,47.999 L12.000,45.999 L10.000,45.999 L10.000,47.999 C10.000,48.551 9.552,48.999 9.000,48.999 L5.000,48.999 C4.448,48.999 4.000,48.551 4.000,47.999 L4.000,45.999 L2.000,45.999 C2.000,51.519 3.604,56.662 6.362,60.999 L13.000,60.999 C13.552,60.999 14.000,61.447 14.000,61.999 C14.000,62.551 13.552,62.999 13.000,62.999 L7.757,62.999 C8.287,63.692 8.848,64.359 9.439,64.999 L19.000,64.999 L19.000,62.999 L17.000,62.999 C16.448,62.999 16.000,62.551 16.000,61.999 C16.000,61.447 16.448,60.999 17.000,60.999 ZM2.000,1.999 C2.000,1.999 2.000,31.002 2.000,43.999 L5.000,43.999 C5.552,43.999 6.000,44.447 6.000,44.999 L6.000,46.999 L8.000,46.999 L8.000,44.999 C8.000,44.447 8.448,43.999 9.000,43.999 L13.000,43.999 C13.552,43.999 14.000,44.447 14.000,44.999 L14.000,46.999 L16.000,46.999 L16.000,44.999 C16.000,44.447 16.448,43.999 17.000,43.999 L19.000,43.999 L19.000,32.289 L18.845,32.533 C18.655,32.834 18.331,32.999 17.999,32.999 C17.816,32.999 17.632,32.949 17.466,32.844 C16.999,32.550 16.860,31.932 17.154,31.465 L29.000,12.710 L29.000,6.999 C29.000,6.447 29.448,5.999 30.000,5.999 L38.000,5.999 C38.369,5.999 38.708,6.202 38.882,6.527 C39.056,6.852 39.037,7.247 38.832,7.554 L37.202,9.999 L38.832,12.444 C39.037,12.751 39.056,13.146 38.882,13.471 C38.708,13.796 38.369,13.999 38.000,13.999 L31.814,13.999 L42.845,31.465 C43.140,31.932 43.001,32.550 42.534,32.844 C42.368,32.949 42.183,32.999 42.001,32.999 C41.669,32.999 41.345,32.834 41.154,32.533 L41.000,32.289 L41.000,43.999 L43.000,43.999 C43.552,43.999 44.000,44.447 44.000,44.999 L44.000,46.999 L46.000,46.999 L46.000,44.999 C46.000,44.447 46.448,43.999 47.000,43.999 L51.000,43.999 C51.552,43.999 52.000,44.447 52.000,44.999 L52.000,46.999 L54.000,46.999 L54.000,44.999 C54.000,44.447 54.448,43.999 55.000,43.999 L58.000,43.999 C58.000,28.205 58.000,1.999 58.000,1.999 L2.000,1.999 ZM33.000,47.999 L27.000,47.999 C26.448,47.999 26.000,47.551 26.000,46.999 L26.000,39.999 C26.000,37.794 27.794,35.999 30.000,35.999 C32.206,35.999 34.000,37.794 34.000,39.999 L34.000,46.999 C34.000,47.551 33.552,47.999 33.000,47.999 ZM32.000,39.999 C32.000,38.896 31.103,37.999 30.000,37.999 C28.897,37.999 28.000,38.896 28.000,39.999 L28.000,45.999 L32.000,45.999 L32.000,39.999 Z" class="cls-1"/>
</svg>
